<?xml version="1.0" standalone="no"?>
<!DOCTYPE svg PUBLIC "-//W3C//DTD SVG 20010904//EN"
 "http://www.w3.org/TR/2001/REC-SVG-20010904/DTD/svg10.dtd">
<svg version="1.0" xmlns="http://www.w3.org/2000/svg"
 width="211.000000pt" height="211.000000pt" viewBox="0 0 211.000000 211.000000"
 preserveAspectRatio="xMidYMid meet">
<metadata>
Created by potrace 1.14, written by Peter Selinger 2001-2017
</metadata>
<g transform="translate(0.000000,211.000000) scale(0.100000,-0.100000)"
fill="#000000" stroke="none">
<path d="M1015 2101 c-3 -5 -14 -7 -25 -4 -19 5 -20 2 -14 -37 5 -32 4 -41 -5
-36 -7 4 -11 15 -10 24 4 41 -1 49 -32 49 -30 0 -30 -1 -24 -39 4 -25 3 -38
-4 -38 -6 0 -11 12 -11 28 0 34 -14 59 -25 43 -3 -7 -16 -9 -27 -5 -18 5 -19
3 -12 -42 5 -34 4 -45 -5 -40 -6 4 -11 17 -11 29 0 30 -15 53 -25 38 -4 -7
-16 -9 -27 -5 -18 5 -20 3 -13 -17 4 -13 8 -37 8 -54 0 -16 6 -35 14 -40 8 -6
15 -28 16 -48 0 -20 4 -37 8 -37 10 0 28 -78 22 -100 -8 -29 45 -48 165 -60
111 -12 270 1 328 25 28 12 35 19 31 35 -6 22 12 100 22 100 4 0 8 17 8 37 1
20 7 42 15 47 7 6 14 22 14 36 0 14 4 38 9 54 7 26 6 28 -10 22 -11 -4 -22 -1
-27 6 -10 17 -28 -7 -28 -39 0 -12 -5 -25 -11 -29 -9 -5 -10 6 -5 41 7 43 6
47 -9 41 -10 -3 -24 -1 -31 5 -11 9 -15 3 -20 -30 -4 -23 -11 -41 -15 -41 -5
0 -6 19 -3 42 6 37 5 41 -11 34 -10 -3 -24 -1 -31 5 -12 9 -14 3 -14 -35 0
-26 -5 -46 -11 -46 -7 0 -8 16 -3 46 6 44 6 46 -13 36 -14 -8 -23 -8 -31 0 -8
8 -18 9 -36 0 -13 -6 -27 -8 -30 -4 -11 10 -45 12 -51 3z m32 -63 c-3 -7 -5
-2 -5 12 0 14 2 19 5 13 2 -7 2 -19 0 -25z"/>
<path d="M680 1158 c0 -453 2 -486 19 -525 23 -50 79 -83 143 -83 57 0 139
-23 189 -52 l40 -24 67 34 c50 24 88 35 148 41 86 9 107 17 141 53 40 43 43
83 43 571 l0 467 -395 0 -395 0 0 -482z"/>
<path d="M1533 1253 c-15 -5 -18 -59 -4 -67 5 -3 7 -15 4 -27 -4 -15 0 -22 16
-26 19 -5 26 -21 22 -47 -3 -16 22 -36 44 -36 22 0 35 -17 35 -44 0 -7 -7 -13
-15 -13 -10 0 -13 6 -10 17 4 13 -5 23 -35 39 -22 11 -46 18 -55 15 -17 -7
-20 -49 -4 -59 6 -4 8 -12 6 -19 -7 -19 34 -53 81 -67 23 -6 42 -16 42 -20 0
-5 -11 -3 -25 3 -37 17 -56 -4 -30 -32 10 -11 24 -20 32 -20 18 0 17 -15 -3
-34 -19 -20 -23 -20 -46 1 -15 13 -23 15 -36 7 -33 -21 -38 -119 -6 -145 17
-14 1 -39 -25 -39 -25 0 -73 -60 -77 -97 -2 -18 0 -52 5 -75 12 -53 3 -71 -15
-29 -7 17 -19 31 -25 31 -7 0 -21 7 -30 16 -17 15 -21 15 -46 -2 -16 -10 -34
-19 -41 -20 -16 -3 -14 0 -35 -44 l-16 -35 -10 28 c-10 26 -45 47 -77 47 -25
0 -64 -47 -64 -77 l-1 -28 -17 35 c-19 39 -53 60 -98 60 -36 0 -60 -28 -71
-82 l-6 -31 -23 46 c-23 44 -61 80 -113 107 -24 12 -24 12 -17 -30 6 -38 5
-42 -9 -30 -23 19 -48 4 -43 -25 6 -27 1 -30 -20 -16 -11 6 -12 26 -7 85 6 61
4 86 -10 121 -9 25 -21 45 -26 45 -6 0 -18 -17 -27 -39 l-18 -39 -22 33 -21
34 22 3 c26 4 36 37 14 49 -13 8 -13 14 0 50 14 42 9 129 -7 129 -14 0 -70
-70 -70 -88 0 -10 -9 -3 -25 20 -31 46 -32 65 -3 64 28 -1 37 33 14 50 -15 10
-13 15 18 42 40 35 73 115 51 120 -8 2 -23 -2 -34 -8 -17 -9 -21 -8 -21 5 0 9
-7 18 -16 22 -13 5 -10 11 15 37 34 35 68 116 48 116 -34 0 -127 -74 -127
-101 0 -11 -9 -19 -23 -21 -30 -4 -37 -47 -8 -55 12 -3 21 -13 21 -23 0 -13
-12 -5 -44 26 -24 24 -48 44 -55 44 -28 0 -2 -108 38 -152 28 -32 28 -32 8
-48 -28 -23 -16 -52 20 -48 27 3 28 2 24 -42 -1 -25 -4 -46 -6 -48 -1 -2 -28
9 -59 24 -30 16 -59 24 -63 20 -4 -4 6 -32 22 -63 33 -63 91 -107 156 -118 21
-4 41 -11 44 -16 4 -5 -8 -6 -26 -2 -36 7 -53 -11 -38 -39 12 -22 27 -23 51
-1 10 9 20 14 22 12 2 -2 6 -32 9 -66 l7 -63 -50 0 c-52 0 -120 -22 -120 -38
0 -5 27 -21 59 -36 54 -24 70 -26 158 -24 67 2 104 -1 118 -10 20 -13 20 -13
-1 -7 -25 6 -49 -17 -40 -40 7 -19 45 -20 52 0 7 17 64 21 64 5 0 -5 -7 -10
-15 -10 -17 0 -82 -55 -96 -83 -11 -19 -8 -19 50 -15 50 3 70 11 116 42 44 31
60 37 82 31 26 -7 26 -8 8 -15 -12 -4 -27 -15 -34 -24 -11 -13 -11 -20 2 -40
16 -23 15 -25 -21 -52 -44 -32 -62 -53 -62 -71 0 -23 22 -14 72 28 l48 40 30
-21 c17 -12 30 -26 30 -31 0 -15 -30 -10 -36 6 -11 28 -24 4 -24 -46 0 -37 4
-49 15 -49 8 0 15 6 15 14 0 8 15 17 34 20 70 13 71 70 1 103 -19 9 -35 19
-35 22 0 3 24 21 53 40 63 42 101 42 164 3 23 -15 42 -30 43 -33 0 -4 -16 -19
-35 -33 -26 -20 -35 -35 -35 -57 0 -31 13 -40 77 -52 l31 -6 0 45 c-1 51 -12
64 -30 34 -7 -11 -16 -20 -20 -20 -17 0 -7 28 17 50 24 23 27 23 53 8 35 -20
92 -33 92 -20 0 12 -57 62 -71 62 -4 0 -6 12 -3 28 6 36 -6 52 -47 61 l-34 8
38 8 c33 6 42 4 66 -19 15 -14 36 -26 48 -26 11 0 23 -7 26 -14 5 -11 21 -14
64 -13 32 2 64 6 71 11 21 13 13 35 -20 52 -18 9 -37 23 -41 30 -4 8 -18 14
-30 15 -12 0 -31 4 -42 9 -18 7 -18 8 7 15 19 5 32 2 43 -9 20 -20 55 -21 55
-2 0 8 -9 21 -21 29 -31 22 -10 27 62 16 76 -12 75 -12 119 -2 21 5 39 17 45
31 5 12 15 22 21 22 6 0 23 10 38 21 38 30 33 72 -9 80 -16 3 -38 2 -47 -3
-10 -5 -19 -4 -23 2 -12 19 -35 10 -53 -20 -14 -22 -21 -27 -30 -18 -8 8 -4
19 14 43 19 25 30 31 49 27 14 -2 33 -1 42 3 16 6 16 8 -5 25 l-22 18 47 18
c59 22 115 72 107 96 -3 10 2 28 10 40 21 29 20 75 0 86 -18 10 -61 -7 -74
-29 -12 -18 -40 -3 -40 21 0 11 -6 20 -12 20 -7 1 2 7 20 15 31 14 44 35 20
35 -7 0 3 16 22 35 18 19 31 38 27 42 -4 3 1 15 10 25 13 14 15 23 7 36 -6 9
-9 33 -6 53 3 30 0 40 -19 53 -22 15 -24 14 -46 -6 -30 -28 -83 -35 -83 -10 0
28 -23 71 -41 77 -9 3 -24 14 -34 25 -19 21 -22 22 -42 13z m157 -225 c0 -14
-18 -9 -24 8 -11 28 -6 39 9 20 8 -11 15 -23 15 -28z m-1237 -34 l-18 -28 -3
28 c-2 15 -1 35 3 44 5 14 7 14 21 0 15 -14 14 -18 -3 -44z m1204 -51 c-3 -10
-5 -4 -5 12 0 17 2 24 5 18 2 -7 2 -21 0 -30z m-40 -310 c-3 -10 -5 -4 -5 12
0 17 2 24 5 18 2 -7 2 -21 0 -30z m-37 -65 c0 -18 -41 -68 -51 -62 -6 3 -1 12
10 21 16 10 19 21 15 39 -5 19 -3 23 10 18 9 -3 16 -11 16 -16z m-561 -169
c10 -11 28 -43 39 -70 l21 -49 -26 0 c-67 0 -126 59 -115 116 6 31 53 33 81 3z
m181 -18 c0 -44 -29 -85 -68 -96 -21 -6 -22 -4 -16 22 13 62 26 93 42 103 32
18 42 11 42 -29z m184 23 c3 -9 6 -17 6 -20 0 -7 -62 -35 -67 -30 -3 3 7 11
21 18 19 8 26 17 23 30 -6 22 9 24 17 2z m-567 -70 c15 -11 10 -11 -26 1 -63
22 -74 32 -53 54 16 16 18 15 39 -12 12 -16 30 -35 40 -43z m416 -3 c-3 -11
-11 -22 -19 -25 -11 -4 -11 0 2 19 20 30 24 31 17 6z m-224 -85 c-2 -1 -25
-15 -51 -30 -40 -23 -48 -25 -48 -11 0 17 51 44 84 45 11 0 17 -2 15 -4z m221
-17 c0 -22 -19 -20 -70 7 -24 13 -23 13 23 14 41 0 47 -3 47 -21z"/>
</g>
</svg>
